<svg width="21" height="20" viewBox="0 0 21 20" fill="none" xmlns="http://www.w3.org/2000/svg">
<path fill-rule="evenodd" clip-rule="evenodd" d="M10.5 3.83695e-05C7.72683 -0.00731216 5.06387 1.04172 3.0954 2.91698C1.12693 4.79223 0.0137109 7.34055 4.2674e-07 10.0028C-0.000630832 12.1115 0.6991 14.1655 1.99753 15.8663L0.69079 19.58L4.7204 18.3476C6.29927 19.3405 8.12737 19.9072 10.0129 19.9882C11.8985 20.0692 13.772 19.6616 15.437 18.8082C17.102 17.9547 18.497 16.6869 19.4758 15.1376C20.4546 13.5883 20.9811 11.8147 21 10.0028C20.9848 7.341 19.8711 4.79354 17.9029 2.9186C15.9348 1.04366 13.2727 -0.00585197 10.5 3.83695e-05ZM16.8322 12.7439C16.7574 12.6223 16.5502 12.5449 16.2566 12.4013C15.963 12.2576 14.3914 11.5502 14.1266 11.4507C13.8618 11.3512 13.6431 11.307 13.4359 11.5999C13.2286 11.8928 12.6645 12.5449 12.4688 12.7439C12.273 12.9428 12.1118 12.9594 11.8067 12.8157C10.9055 12.4715 10.0722 11.9818 9.34293 11.3678C8.6675 10.7802 8.08563 10.1006 7.61595 9.35069C7.4375 9.05779 7.61595 8.89752 7.74836 8.75384C7.88076 8.61015 8.05921 8.4112 8.20888 8.24541C8.33748 8.09829 8.44051 7.9322 8.51398 7.75356C8.55637 7.675 8.5785 7.58782 8.5785 7.49935C8.5785 7.41087 8.55637 7.32369 8.51398 7.24513C8.43915 7.10145 7.82319 5.66459 7.5699 5.07879C7.31661 4.49299 7.05757 4.52615 6.87911 4.52615C6.7094 4.53341 6.54026 4.55001 6.37253 4.57589C6.04493 4.61316 5.73529 4.73973 5.48026 4.94063C5.13507 5.25188 4.86149 5.62899 4.67709 6.04775C4.4927 6.46651 4.40156 6.91767 4.40954 7.37224C4.50797 8.47405 4.94246 9.52357 5.65872 10.3896C5.80839 10.5831 7.77138 13.6226 10.8857 14.8108C14 15.9989 14 15.59 14.5584 15.5402C15.1168 15.4905 16.3717 14.8384 16.625 14.1531C16.8231 13.719 16.8852 13.2389 16.8035 12.7715L16.8322 12.7439Z" fill="#FF6600"/>
</svg>
