<svg width="23" height="23" viewBox="0 0 23 23" fill="none" xmlns="http://www.w3.org/2000/svg">
<path d="M16.1623 0H6.83768C5.02421 0 3.28502 0.707555 2.00271 1.96701C0.720396 3.22647 0 4.93465 0 6.71579L0 13.3681C0.00044651 14.9466 0.567011 16.4745 1.60023 17.6836C2.63346 18.8927 4.0673 19.7057 5.65005 19.9799V23L8.93661 20.1127H16.1623C17.0625 20.112 17.9537 19.9368 18.7849 19.5972C19.616 19.2576 20.3708 18.7604 21.006 18.1338C21.6411 17.5073 22.1442 16.7638 22.4864 15.9461C22.8286 15.1283 23.0031 14.2522 23 13.3681V6.71579C23 4.93465 22.2796 3.22647 20.9973 1.96701C19.715 0.707555 17.9758 0 16.1623 0ZM14.8101 15.8569C13.0463 16.0013 10.6945 14.4364 9.07183 12.8195C7.44913 11.2026 5.83231 8.90434 5.97929 7.18353C6.09688 5.79186 7.49029 4.87371 8.73083 5.89581C9.14238 6.23651 10.0948 7.62817 10.0066 8.14788C9.95241 8.45257 9.78736 8.72754 9.54218 8.92167C9.36101 9.06768 9.22102 9.25691 9.13558 9.47124C9.05015 9.68558 9.02212 9.91786 9.05419 10.1459C9.33307 10.7377 9.73339 11.2665 10.2301 11.6992C10.6681 12.1873 11.2047 12.5806 11.8057 12.8541C12.0379 12.8856 12.2744 12.8581 12.4926 12.7742C12.7108 12.6903 12.9035 12.5528 13.0521 12.3748C13.2498 12.134 13.5298 11.9719 13.84 11.9187C14.3456 11.832 15.786 12.7675 16.1329 13.1717C17.1677 14.3728 16.227 15.7414 14.8101 15.8569ZM11.8704 6.84283C11.8688 6.80348 11.8767 6.76432 11.8936 6.72858C11.9104 6.69284 11.9357 6.66155 11.9673 6.63729C11.9989 6.61304 12.0359 6.59651 12.0753 6.58907C12.1147 6.58163 12.1553 6.5835 12.1938 6.59453C12.9635 6.75344 13.6681 7.1328 14.2185 7.6847C14.7689 8.2366 15.1405 8.9363 15.2863 9.69546C15.2969 9.73311 15.298 9.77271 15.2896 9.81089C15.2812 9.84906 15.2636 9.88469 15.2382 9.91474C15.2128 9.94479 15.1804 9.96837 15.1437 9.98347C15.1071 9.99858 15.0672 10.0048 15.0276 10.0015H14.9923C14.9078 9.98455 14.83 9.9439 14.7684 9.88447C14.7069 9.82503 14.6642 9.74935 14.6454 9.66658C14.5393 9.06868 14.2518 8.51618 13.8207 8.08139C13.3895 7.6466 12.8348 7.34976 12.229 7.22973C12.1349 7.2116 12.0492 7.16419 11.9846 7.09451C11.92 7.02484 11.88 6.93659 11.8704 6.84283ZM16.9384 10.3422C16.8507 10.3236 16.7706 10.2796 16.7088 10.2157C16.6469 10.1519 16.606 10.0712 16.5915 9.98418C16.2505 7.44338 14.6984 5.77454 12.0703 5.19709C11.9871 5.17251 11.9131 5.12432 11.8576 5.05856C11.8022 4.99281 11.7678 4.91243 11.7587 4.82752C11.757 4.7889 11.7648 4.75045 11.7814 4.71538C11.7979 4.68031 11.8227 4.64963 11.8538 4.6259C11.8849 4.60217 11.9213 4.58608 11.9599 4.57896C11.9986 4.57184 12.0385 4.57391 12.0762 4.58499C15.0158 5.23173 16.8678 7.17776 17.2382 10.0593C17.248 10.0994 17.2469 10.1414 17.2351 10.181C17.2233 10.2206 17.2011 10.2565 17.1708 10.2851C17.1405 10.3137 17.1031 10.334 17.0623 10.344C17.0216 10.354 16.9788 10.3534 16.9384 10.3422ZM18.8374 10.6367H18.8139C18.7282 10.62 18.6495 10.5788 18.5878 10.5181C18.526 10.4575 18.484 10.3802 18.467 10.296C17.7556 6.13834 15.8037 4.0595 11.9292 3.36656C11.8388 3.3483 11.7569 3.30193 11.6954 3.23432C11.634 3.16671 11.5964 3.08146 11.5882 2.99121C11.5827 2.95213 11.5872 2.91231 11.6014 2.87539C11.6155 2.83846 11.6389 2.80559 11.6692 2.77977C11.6996 2.75395 11.7361 2.736 11.7753 2.72755C11.8146 2.71909 11.8553 2.7204 11.8939 2.73136C16.1094 3.46473 18.3318 5.83229 19.102 10.3307C19.1124 10.3708 19.1125 10.4129 19.1021 10.453C19.0917 10.4932 19.0713 10.5302 19.0427 10.5606C19.014 10.591 18.9781 10.6139 18.9381 10.6272C18.8982 10.6405 18.8555 10.6438 18.8139 10.6367H18.8374Z" fill="#FF6600"/>
</svg>
