<svg width="11" height="20" viewBox="0 0 11 20" fill="none" xmlns="http://www.w3.org/2000/svg">
<path d="M6.76923 20H3.62637C3.14286 20 2.65934 19.625 2.65934 19V11.75H0.967033C0.362637 11.75 0 11.375 0 10.875V7.75C0 7.25 0.362637 6.75 0.967033 6.75H2.78022V5.25C2.78022 3.75 3.26374 2.375 4.10989 1.5C4.95604 0.5 6.16483 0 7.73626 0H10.1538C10.6374 0 11.1209 0.375 11.1209 1V3.875C11.1209 4.375 10.7582 4.875 10.1538 4.875H8.46154C7.97802 4.875 7.85714 4.875 7.85714 5C7.85714 5 7.73626 5.25 7.73626 5.625V6.875H9.91209C10.033 6.875 10.2747 6.875 10.3956 7C10.6374 7.125 10.8791 7.375 10.8791 7.75V10.875C10.8791 11.375 10.5165 11.875 9.91209 11.875H7.73626V19.125C7.73626 19.625 7.25275 20 6.76923 20Z" fill="#FF6600"/>
</svg>
