<svg width="22" height="19" viewBox="0 0 22 19" fill="none" xmlns="http://www.w3.org/2000/svg">
<path d="M21.0773 0.0464088C17.2913 1.5432 5.06383 6.54412 0.437851 8.43542C0.303924 8.49051 0.190449 8.58457 0.112738 8.70489C0.0350263 8.82522 -0.00318273 8.96603 0.00326569 9.10832C0.0097141 9.25061 0.0605097 9.38754 0.148799 9.50063C0.237089 9.61372 0.358624 9.69754 0.497007 9.74076L5.82102 11.3652L17.7054 4.28732C17.7203 4.28021 17.7373 4.27845 17.7534 4.28235C17.7695 4.28624 17.7837 4.29554 17.7936 4.30864C17.8034 4.32174 17.8083 4.33781 17.8073 4.35405C17.8063 4.37029 17.7996 4.38568 17.7882 4.39755L8.69007 12.8794L16.9364 18.7911C17.0861 18.8993 17.2614 18.9684 17.4458 18.9921C17.6301 19.0158 17.8176 18.9933 17.9907 18.9267C18.1639 18.86 18.3169 18.7515 18.4356 18.6111C18.5544 18.4707 18.6349 18.3031 18.6696 18.124L21.9883 0.783203C22.0105 0.666971 22.0005 0.547025 21.9594 0.435856C21.9183 0.324688 21.8475 0.226365 21.7545 0.151127C21.6615 0.0758886 21.5496 0.0264882 21.4305 0.00807066C21.3114 -0.0103469 21.1894 0.00289213 21.0773 0.0464088Z" fill="#FF6600"/>
</svg>
